      <svg xmlns="http://www.w3.org/2000/svg" xmlns:xlink="http://www.w3.org/1999/xlink" viewBox="0 0 136 48">
        <path
            d="M 2.97 10.208 L 6.427 10.208 L 6.427 21.508 L 19.996 21.508 L 19.996 10.209 L 23.454 10.209 L 23.454 36.923 L 19.996 36.923 L 19.996 24.726 L 6.427 24.726 L 6.427 36.923 L 2.97 36.923 Z M 44.994 31.498 C 44.669 33.369 43.829 34.841 42.477 35.913 C 41.149 36.986 39.231 37.521 36.726 37.521 C 33.769 37.521 31.501 36.635 29.922 34.865 C 28.344 33.068 27.555 30.575 27.555 27.382 C 27.555 25.711 27.78 24.226 28.231 22.929 C 28.682 21.633 29.309 20.548 30.11 19.675 C 30.929 18.807 31.93 18.13 33.042 17.691 C 34.169 17.217 35.397 16.981 36.726 16.981 C 38.23 16.981 39.52 17.217 40.596 17.691 C 41.674 18.165 42.552 18.826 43.228 19.675 C 43.929 20.497 44.444 21.483 44.769 22.63 C 45.12 23.778 45.295 25.038 45.295 26.409 L 45.295 28.055 L 30.862 28.055 C 30.862 29.028 30.988 29.938 31.238 30.788 C 31.514 31.61 31.89 32.334 32.366 32.958 C 32.869 33.558 33.498 34.043 34.208 34.379 C 34.935 34.729 35.774 34.902 36.726 34.902 C 38.354 34.902 39.545 34.603 40.297 34.004 C 41.049 33.381 41.562 32.545 41.837 31.498 L 44.995 31.498 Z M 42.025 25.623 C 42.025 24.7 41.925 23.865 41.725 23.116 C 41.525 22.368 41.21 21.733 40.785 21.209 C 40.35 20.653 39.781 20.215 39.131 19.936 C 38.455 19.637 37.64 19.488 36.688 19.488 C 34.959 19.488 33.606 20.011 32.629 21.058 C 31.677 22.107 31.113 23.628 30.938 25.625 L 42.025 25.625 Z M 48.953 10.208 L 52.223 10.208 L 52.223 36.923 L 48.953 36.923 Z M 56.643 10.208 L 59.913 10.208 L 59.913 36.923 L 56.643 36.923 Z M 67.567 38.72 C 67.843 39.893 68.368 40.729 69.145 41.227 C 69.949 41.726 71.187 41.975 72.866 41.975 C 74.921 41.975 76.337 41.402 77.113 40.255 C 77.916 39.132 78.316 37.486 78.316 35.316 L 78.316 33.255 C 77.604 34.268 76.664 35.101 75.571 35.687 C 74.521 36.261 73.281 36.548 71.851 36.548 C 70.448 36.548 69.22 36.298 68.168 35.799 C 67.17 35.3 66.297 34.584 65.613 33.705 C 64.917 32.769 64.396 31.717 64.072 30.598 C 63.738 29.366 63.574 28.095 63.582 26.82 C 63.582 25.348 63.784 24.014 64.185 22.816 C 64.585 21.594 65.161 20.559 65.913 19.711 C 66.654 18.846 67.578 18.156 68.619 17.69 C 69.696 17.216 70.899 16.98 72.227 16.98 C 73.327 16.984 74.414 17.213 75.422 17.653 C 76.5 18.078 77.477 18.875 78.353 20.048 L 78.353 17.578 L 81.586 17.578 L 81.586 33.778 C 81.586 35.45 81.462 36.946 81.211 38.268 C 80.984 39.616 80.547 40.751 79.895 41.674 C 79.268 42.622 78.392 43.345 77.264 43.844 C 76.137 44.342 74.684 44.592 72.905 44.592 C 70.348 44.592 68.344 44.13 66.891 43.207 C 65.437 42.309 64.585 40.814 64.334 38.718 L 67.567 38.718 Z M 78.392 26.523 C 78.392 25.25 78.241 24.191 77.94 23.343 C 77.64 22.469 77.226 21.759 76.7 21.21 C 76.195 20.674 75.561 20.275 74.858 20.05 C 74.172 19.799 73.446 19.673 72.715 19.676 C 71.914 19.676 71.163 19.813 70.46 20.087 C 69.768 20.348 69.149 20.771 68.657 21.322 C 68.156 21.895 67.754 22.631 67.454 23.53 C 67.179 24.428 67.041 25.513 67.041 26.785 C 67.041 28.081 67.191 29.179 67.492 30.078 C 67.817 30.976 68.231 31.698 68.732 32.247 C 69.233 32.796 69.81 33.195 70.46 33.445 C 71.109 33.689 71.797 33.816 72.49 33.819 C 73.344 33.819 74.12 33.681 74.821 33.407 C 75.533 33.142 76.176 32.72 76.7 32.172 C 77.226 31.623 77.64 30.938 77.94 30.114 C 78.241 29.266 78.392 28.281 78.392 27.159 Z M 97.963 34.268 C 97.262 35.116 96.372 35.852 95.295 36.475 C 94.217 37.074 92.877 37.374 91.273 37.374 C 90.297 37.374 89.394 37.249 88.567 36.999 C 87.802 36.793 87.087 36.437 86.463 35.952 C 85.882 35.447 85.419 34.821 85.109 34.118 C 84.784 33.394 84.62 32.546 84.62 31.574 C 84.62 30.252 84.896 29.179 85.448 28.356 C 86.026 27.531 86.801 26.863 87.703 26.411 C 88.712 25.919 89.788 25.578 90.897 25.401 C 92.103 25.198 93.321 25.073 94.543 25.026 L 97.888 24.914 L 97.888 24.166 C 97.888 22.519 97.537 21.335 96.836 20.612 C 96.135 19.888 94.994 19.526 93.416 19.526 C 91.862 19.526 90.722 19.788 89.995 20.311 C 89.268 20.811 88.792 21.509 88.567 22.407 L 85.597 22.07 C 85.948 20.299 86.788 19.014 88.116 18.217 C 89.443 17.393 91.249 16.982 93.528 16.982 C 94.932 16.982 96.109 17.157 97.061 17.505 C 98.037 17.83 98.829 18.304 99.43 18.928 C 100.03 19.551 100.456 20.324 100.707 21.247 C 100.982 22.17 101.121 23.205 101.121 24.353 L 101.121 36.923 L 97.963 36.923 L 97.963 34.267 Z M 97.889 27.233 L 94.769 27.346 C 93.441 27.396 92.338 27.521 91.461 27.721 C 90.583 27.92 89.882 28.194 89.356 28.543 C 88.879 28.84 88.5 29.269 88.266 29.778 C 88.066 30.277 87.966 30.85 87.966 31.499 C 87.966 32.471 88.254 33.258 88.83 33.856 C 89.431 34.43 90.409 34.718 91.762 34.718 C 93.69 34.718 95.195 34.242 96.272 33.295 C 97.349 32.347 97.888 31.05 97.888 29.404 L 97.888 27.233 Z M 106.461 20.162 L 103.454 20.162 L 103.454 17.58 L 106.461 17.58 L 106.461 12.304 L 109.731 12.304 L 109.731 17.579 L 114.88 17.579 L 114.88 20.161 L 109.731 20.161 L 109.731 31.498 C 109.731 32.446 109.944 33.206 110.37 33.78 C 110.795 34.353 111.447 34.641 112.324 34.641 C 113.206 34.652 114.083 34.513 114.918 34.229 L 115.481 36.736 C 114.943 36.92 114.389 37.057 113.827 37.147 C 113.251 37.273 112.562 37.334 111.76 37.334 C 110.658 37.334 109.769 37.173 109.092 36.848 C 108.436 36.542 107.878 36.063 107.476 35.463 C 107.075 34.865 106.8 34.154 106.649 33.332 C 106.518 32.439 106.456 31.538 106.461 30.636 L 106.461 20.161 Z M 133.752 31.499 C 133.426 33.37 132.586 34.842 131.234 35.914 C 129.906 36.987 127.988 37.522 125.483 37.522 C 122.526 37.522 120.259 36.636 118.68 34.866 C 117.101 33.07 116.312 30.576 116.312 27.383 C 116.312 25.712 116.537 24.228 116.988 22.93 C 117.44 21.634 118.067 20.549 118.868 19.676 C 119.686 18.808 120.687 18.131 121.799 17.692 C 122.927 17.218 124.154 16.982 125.483 16.982 C 126.987 16.982 128.276 17.218 129.355 17.692 C 130.431 18.166 131.309 18.827 131.986 19.676 C 132.687 20.498 133.201 21.484 133.526 22.631 C 133.877 23.78 134.053 25.039 134.053 26.41 L 134.053 28.057 L 119.618 28.057 C 119.618 29.029 119.744 29.94 119.994 30.789 C 120.27 31.611 120.646 32.335 121.122 32.959 C 121.626 33.559 122.254 34.044 122.964 34.38 C 123.69 34.73 124.529 34.903 125.482 34.903 C 127.111 34.903 128.301 34.604 129.053 34.005 C 129.805 33.382 130.318 32.546 130.593 31.499 L 133.751 31.499 Z M 130.783 25.625 C 130.783 24.702 130.682 23.866 130.482 23.118 C 130.282 22.369 129.968 21.734 129.542 21.21 C 129.107 20.654 128.538 20.216 127.888 19.937 C 127.212 19.638 126.397 19.489 125.445 19.489 C 123.717 19.489 122.363 20.012 121.386 21.06 C 120.434 22.108 119.87 23.63 119.695 25.626 L 130.783 25.626 Z"
            fill="#081f2d" />
        <path
            d="M 64.656 4.357 C 64.41 4.743 64.093 5.522 63.952 6.076 C 63.809 6.604 63.751 7.15 63.779 7.696 C 63.801 8.512 63.919 9.003 64.255 9.692 C 64.547 10.292 64.867 10.722 65.417 11.257 C 65.899 11.728 66.409 12.106 67.067 12.491 L 67.376 12.673 L 67.573 12.652 C 68.43 12.572 69.432 11.705 70.212 10.367 C 70.715 9.499 70.922 8.609 70.73 8.127 C 70.673 7.983 70.641 7.967 70.375 7.94 C 68.556 7.763 66.879 6.881 65.708 5.484 C 65.433 5.155 65.182 4.806 64.956 4.442 C 64.884 4.321 64.805 4.22 64.782 4.22 C 64.759 4.22 64.701 4.282 64.656 4.356 Z M 80.989 4.357 C 80.798 4.679 80.586 4.989 80.354 5.284 C 80.004 5.703 79.619 6.093 79.204 6.449 C 78.18 7.273 76.94 7.785 75.631 7.926 C 75.508 7.936 75.387 7.954 75.267 7.983 C 75.107 8.049 75.052 8.661 75.167 9.135 C 75.301 9.686 75.627 10.343 76.096 10.998 C 76.729 11.886 77.417 12.439 78.106 12.622 C 78.398 12.695 78.498 12.681 78.786 12.517 C 79.768 11.958 80.569 11.28 81.133 10.528 C 82.231 9.068 82.436 7.289 81.726 5.383 C 81.527 4.842 81.201 4.222 81.118 4.222 C 81.089 4.222 81.035 4.278 80.989 4.357 Z"
            fill="rgb(255,255,60)" />
    </svg>